<?xml version="1.0" encoding="utf-8"?>
<!-- Generator: Adobe Illustrator 27.6.1, SVG Export Plug-In . SVG Version: 6.00 Build 0)  -->
<svg version="1.1" id="Layer_1" xmlns="http://www.w3.org/2000/svg" xmlns:xlink="http://www.w3.org/1999/xlink" x="0px" y="0px"
	 viewBox="0 0 1024 1024" style="enable-background:new 0 0 1024 1024;" xml:space="preserve">
<g>
	<g>
		<path d="M220.1,317.86c10.4-21.18,23.52-41,38.96-58.84c15.48-17.88,33.21-33.84,52.72-47.22c4.88-3.35,9.87-6.54,14.95-9.56
			c5.47-3.25,11.04-6.44,16.93-8.87c5.96-2.46,12.33-4.26,18.83-4.16c5.69,0.09,11.12,1.81,15.91,4.86
			c9.25,5.89,15.45,15.68,20.44,25.19c6.07,11.59,11.1,23.73,15.18,36.16c8.28,25.22,12.54,51.71,12.49,78.26
			c-0.02,12.92-0.81,26.03-3.43,38.7c-2.49,12.03-6.87,23.92-14.69,33.55c-14.73,18.13-38.15,27.12-61.15,27.04
			c-25.13-0.1-49.74-9.86-70.18-24.06c-18-12.5-33.16-29.02-44.47-47.76c-11.3-18.71-18.92-39.81-21.54-61.55
			c-0.64-5.3-0.99-10.63-1.05-15.97c-0.04-3.22-5.04-3.22-5,0c0.28,22.95,5.92,45.62,15.84,66.28
			c9.81,20.42,23.89,38.91,41.13,53.62c18.86,16.1,41.85,28.21,66.38,32.64c24.79,4.48,51.26,0.39,71.59-15.18
			c9.81-7.51,17.41-17.24,22.24-28.62c5.19-12.23,7.39-25.42,8.5-38.59c2.27-27.1-0.01-54.59-6.47-80.99
			c-3.28-13.39-7.67-26.48-13.07-39.17c-4.84-11.38-10.26-22.87-17.99-32.6c-7.41-9.32-17.57-16.3-29.77-16.8
			c-13.6-0.55-26.4,6.2-37.78,12.88c-20.93,12.28-40.25,27.37-57.32,44.62c-17.16,17.34-32.12,36.93-44.25,58.11
			c-2.91,5.08-5.65,10.25-8.23,15.5c-0.59,1.21-0.33,2.7,0.9,3.42C217.78,319.4,219.5,319.08,220.1,317.86L220.1,317.86z"/>
	</g>
</g>
<g>
	<g>
		<path d="M526.51,527.95c0.08-49.01,0.15-98.02,0.23-147.03c0.08-49.01,0.15-98.02,0.23-147.03c0.04-23.72-0.31-47.47,0.34-71.19
			c0.61-22.33,2.65-44.9,10.04-66.12c11.76-33.79,42.24-66.29,80.71-63.46c20.35,1.49,38.97,12.58,53.75,26.07
			c14.94,13.62,27.02,30.11,36.88,47.69c9.99,17.82,17.74,36.78,24.39,56.07c7.29,21.15,13.47,42.71,19.12,64.35
			c6.02,23.05,11.27,46.31,15.73,69.72c4.42,23.16,8.85,46.68,10.19,70.26c1.25,22.02-1.3,43.96-11.01,63.98
			c-8.58,17.69-21.33,33.07-35.98,46.07c-16.32,14.49-35.1,25.94-54.32,36.13c-9.84,5.22-19.85,10.12-29.88,14.97
			c-10.05,4.86-20.42,10.44-31.66,11.82c-11.25,1.38-20.75-3.08-29.01-10.42c-7.54-6.7-14.32-14.42-20.35-22.49
			c-12.03-16.11-21.23-34.28-27.04-53.53c-2.83-9.37-4.87-18.99-6.03-28.71c-0.38-3.16-5.38-3.19-5,0
			c2.46,20.51,8.45,40.43,17.75,58.88c9.23,18.3,21.76,35.72,37.13,49.38c7.94,7.05,17.19,12.22,28.06,12.17
			c11.29-0.05,21.98-4.78,31.99-9.56c20.75-9.91,41.55-19.99,61.04-32.26c34.48-21.7,66.41-52.72,76.16-93.63
			c5.56-23.32,3.49-47.53,0.1-71c-3.52-24.34-8.05-48.54-13.32-72.56c-5.25-23.92-11.33-47.66-18.22-71.16
			c-6.06-20.66-12.66-41.2-21.03-61.06c-8.1-19.22-17.87-37.82-30.44-54.51c-12.34-16.38-27.31-31.42-45.46-41.3
			c-17.48-9.52-37.75-13.47-57.14-7.83c-17.81,5.18-33.03,17.17-44.29,31.67c-27.47,35.39-28.06,82.39-28.13,125.15
			c-0.08,50.53-0.16,101.05-0.24,151.58c-0.08,50.71-0.16,101.42-0.24,152.14c-0.02,12.25-0.04,24.51-0.06,36.76
			C521.51,531.16,526.51,531.17,526.51,527.95L526.51,527.95z"/>
	</g>
</g>
<g>
	<g>
		<path d="M646.96,421.28c-0.01-12.8-0.02-25.6-0.03-38.41c-0.01-6.4-0.01-12.8-0.02-19.2c0-5.04-0.11-10.13,0.57-15.14
			c0.61-4.47,1.87-9.1,4.68-12.72c2.55-3.29,6.23-5.34,10.34-5.94c3.92-0.57,8.07,0.22,11.45,2.29c4.06,2.49,6.37,6.91,7.96,11.26
			c4.04,11.02,6.59,22.76,8.32,34.36c1.77,11.86,2.4,23.91,1.99,35.89c-0.35,9.99-1.07,20.23-4.25,29.78
			c-2.48,7.45-6.86,15.08-14.36,18.32c-10.25,4.41-21.48-1.07-30.55-5.82c-1.92-1-4.46-2.03-5.52-4.05
			c-0.53-1.01-0.62-2.17-0.68-3.29c-0.09-1.6-0.13-3.2-0.19-4.8c-0.24-6.29-0.48-12.57-0.72-18.86c-0.12-3.14-0.24-6.29-0.36-9.43
			c-0.12-3.21-5.12-3.22-5,0c0.26,6.78,0.52,13.56,0.78,20.35c0.13,3.39,0.26,6.78,0.39,10.17c0.11,2.98,0.03,6.26,1.75,8.86
			c1.52,2.28,3.86,3.7,6.23,4.95c2.74,1.45,5.5,2.86,8.34,4.11c5.59,2.46,11.56,4.47,17.74,4.41c10.31-0.11,18.59-6.4,23.39-15.21
			c4.72-8.66,6.4-18.52,7.29-28.23c2.34-25.48-0.27-51.46-7.56-75.98c-1.64-5.51-3.35-11.29-6.88-15.93
			c-3.03-3.99-7.31-6.75-12.23-7.77c-4.79-1-9.76-0.49-14.22,1.54c-4.56,2.08-8.1,6.04-10.16,10.56
			c-2.23,4.87-3.06,10.17-3.37,15.48c-0.36,5.93-0.18,11.9-0.17,17.84c0.01,13.55,0.02,27.1,0.03,40.65c0,3.33,0.01,6.65,0.01,9.98
			C641.96,424.49,646.96,424.5,646.96,421.28L646.96,421.28z"/>
	</g>
</g>
<g>
	<g>
		<path d="M654.14,336.5c6.29-0.16,12.58-0.32,18.86-0.48c-0.22-1.64-0.44-3.27-0.66-4.91c-17.33,4.25-34.66,8.49-51.99,12.74
			c-2.43,0.6-2.33,4.17,0,4.82c11.78,3.28,23.56,6.56,35.34,9.84c3.1,0.86,4.43-3.96,1.33-4.82c-11.78-3.28-23.56-6.56-35.35-9.84
			c0,1.61,0,3.21,0,4.82c17.33-4.25,34.66-8.49,51.99-12.74c2.73-0.67,2.17-4.98-0.66-4.91c-6.29,0.16-12.58,0.32-18.86,0.48
			C650.93,331.58,650.92,336.58,654.14,336.5L654.14,336.5z"/>
	</g>
</g>
<g>
	<g>
		<path d="M659.96,359.77c3.48,0.09,6.96,0.18,10.44,0.27c-0.22-1.64-0.44-3.27-0.66-4.91c-22.78,7.02-45.36,14.69-67.71,23
			c-6.38,2.37-12.75,4.8-19.09,7.28c-1.16,0.45-1.99,1.43-1.79,2.74c0.18,1.22,1.19,2.16,2.46,2.17
			c30.25,0.18,60.51,0.36,90.76,0.54c8.48,0.05,16.96,0.1,25.43,0.15c1.23,0.01,2.31-0.96,2.46-2.17c0.13-1.1-0.55-2.56-1.79-2.74
			c-9.15-1.31-18.47-0.44-27.14,2.83c-2.09,0.79-2.4,3.27-0.6,4.57c2.63,1.89,5.27,3.79,7.9,5.68c0.2-1.52,0.4-3.05,0.6-4.57
			c-13.03,3.79-26.06,7.59-39.09,11.38c-2.75,0.8-2.14,4.78,0.66,4.91c10.82,0.49,21.55,1.95,32.1,4.38
			c-0.37-1.39-0.74-2.79-1.1-4.18c-5.34,5.99-12.47,9.92-20.37,11.3c-1.33,0.23-2.08,1.86-1.75,3.08c0.39,1.41,1.74,1.98,3.08,1.75
			c8.66-1.51,16.73-6.03,22.57-12.58c1.19-1.33,0.83-3.73-1.1-4.18c-10.98-2.52-22.18-4.05-33.43-4.55
			c0.22,1.64,0.44,3.27,0.66,4.91c13.03-3.79,26.06-7.59,39.09-11.38c2.2-0.64,2.3-3.35,0.6-4.57c-2.63-1.89-5.27-3.79-7.9-5.68
			c-0.2,1.52-0.4,3.05-0.6,4.57c7.78-2.93,16.23-4.01,24.48-2.83c0.22-1.64,0.44-3.27,0.66-4.91c-30.25-0.18-60.51-0.36-90.76-0.54
			c-8.48-0.05-16.96-0.1-25.43-0.15c0.22,1.64,0.44,3.27,0.66,4.91c22.21-8.67,44.66-16.72,67.32-24.11
			c6.48-2.11,12.97-4.17,19.48-6.17c2.69-0.83,2.19-4.84-0.66-4.91c-3.48-0.09-6.96-0.18-10.44-0.27
			C656.74,354.69,656.75,359.69,659.96,359.77L659.96,359.77z"/>
	</g>
</g>
<g>
	<g>
		<path d="M318.95,396.04c0.92-24.13,23.78-44.4,47.32-45.69c6.62-0.36,13.25,0.9,18.88,4.49c4.65,2.96,8.88,7.71,10.12,13.22
			c0.01,0.06,0.09,0.36,0.09,0.49c0-0.25,0.47-0.21-0.19,0.02c-0.81,0.29-1.6,0.71-2.39,1.06c-1.76,0.76-3.52,1.51-5.28,2.26
			c-3.62,1.53-7.26,3.03-10.91,4.5c-7.1,2.86-14.25,5.62-21.43,8.27c-16.47,6.07-33.15,11.56-50,16.47
			c0.94,0.38,1.88,0.77,2.82,1.15c-1.43-2.63-1-5.83,0.35-8.41c1.61-3.07,4.33-5.12,7.38-6.64c3.45-1.72,7.27-2.68,11-3.63
			c4.39-1.12,8.81-2.07,13.27-2.85c4.96-0.86,9.95-1.49,14.96-1.92c1.24-0.1,2.3-0.87,2.46-2.17c0.14-1.17-0.56-2.47-1.79-2.74
			c-14.22-3.11-27-11.05-36.14-22.38c-0.37,1.39-0.74,2.79-1.1,4.18c15.08-3.4,30.86-2.97,45.74,1.17
			c-0.58-1.03-1.16-2.05-1.75-3.08c-0.29,1.49-1.36,2.79-2.96,2.89c-3.2,0.2-3.22,5.2,0,5c3.71-0.23,7.06-2.82,7.78-6.56
			c0.25-1.33-0.36-2.69-1.75-3.08c-15.75-4.38-32.46-4.77-48.4-1.17c-2,0.45-2.2,2.82-1.1,4.18c9.62,11.92,23.39,20.39,38.35,23.66
			c0.22-1.64,0.44-3.27,0.66-4.91c-10.05,0.85-20.03,2.49-29.8,5c-8,2.05-17.33,4.82-21.29,12.83c-2.06,4.15-2.45,8.98-0.19,13.13
			c0.52,0.95,1.79,1.45,2.82,1.15c15.93-4.65,31.71-9.81,47.3-15.49c7.87-2.87,15.69-5.86,23.47-8.99
			c3.85-1.55,7.68-3.13,11.51-4.74c1.96-0.83,3.92-1.66,5.88-2.5c1.68-0.72,3.7-1.29,4.81-2.85c2.11-2.95-0.06-7.37-1.56-10.15
			c-1.53-2.84-3.64-5.43-6.05-7.57c-5.36-4.74-11.99-7.38-19.07-8.16c-14.23-1.57-28.91,4.41-39.69,13.44
			c-9.64,8.08-16.91,19.55-18.68,32.12c-0.23,1.65-0.4,3.3-0.46,4.97C313.83,399.25,318.83,399.25,318.95,396.04L318.95,396.04z"/>
	</g>
</g>
<g>
	<g>
		<path d="M80.13,757.06c76.7,2.77,153.47,2.44,230.19,0.94c38.16-0.74,76.31-1.72,114.46-2.84c37.12-1.09,74.25-2.57,111.22-6.24
			c35.87-3.56,71.66-9.14,106.5-18.49c32.2-8.65,63.74-20.98,91.08-40.37c25.16-17.84,46.71-40.21,71.97-57.9
			c12.75-8.93,26.48-16.59,41.37-21.29c8.92-2.81,18.14-4.65,27.46-5.42c8.22-0.67,17.4-1.14,25.51,0.66
			c9.17,2.04,11.35,10.27,13.31,18.32c2.14,8.79,4.08,17.63,5.83,26.51c3.67,18.65,6.49,37.46,8.41,56.36
			c3.4,33.54,7.7,72.32-8.41,103.4c-14.78,28.52-44.01,46.26-71.19,61.38c-15.53,8.64-31.65,16.34-48.65,21.58
			c-17.81,5.49-36.32,7.89-54.75,10.19c-35.49,4.44-70.02,11.84-104.37,21.78c-34.13,9.87-67.81,21.28-102.01,30.91
			c-35.67,10.05-71.88,17.37-108.68,21.76c-36.98,4.41-74.21,6.33-111.42,7.18c-37.59,0.86-75.29,0.55-112.73-3.18
			c-32.41-3.23-69.85-6.73-93.89-31.32c-21.58-22.08-29.76-53.78-38.02-82.6c-2.6-9.08-5.15-18.17-7.68-27.27
			c-2.28-8.2-7.81-19.57-3.16-27.66c3.95-6.86,11.81-12.35,17.67-17.49c6.55-5.74,13.26-11.29,20.12-16.65
			c13.56-10.58,27.75-20.34,42.4-29.35c2.74-1.68,0.23-6.01-2.52-4.32c-15.02,9.23-29.51,19.28-43.41,30.13
			c-7.07,5.52-13.98,11.24-20.71,17.17c-5.87,5.17-12.74,10.34-17.16,16.89c-4.69,6.95-3.12,14.28-1.03,21.85
			c2.59,9.38,5.2,18.75,7.84,28.12c4.57,16.2,8.97,32.54,14.88,48.32c10.59,28.3,27.07,53.49,55.91,65.47
			c15.34,6.37,31.86,9.11,48.24,11.31c19.34,2.6,38.8,4.21,58.3,5.08c39.04,1.75,78.25,0.95,117.27-1
			c37.92-1.9,75.82-5.48,113.21-12.21c73.11-13.16,141.92-42.12,214.24-58.37c18.48-4.15,37.1-7.09,55.89-9.44
			c18.36-2.29,36.83-4.56,54.63-9.79c16.97-4.99,33.13-12.42,48.64-20.85c14.56-7.91,28.98-16.43,42.16-26.51
			c12.11-9.27,23.23-20.05,31.23-33.13c8.62-14.1,12.71-30.24,14.21-46.58c1.64-17.87,0.46-35.97-1.03-53.8
			c-1.57-18.82-4-37.57-7.27-56.16c-1.66-9.47-3.55-18.9-5.65-28.28c-1.7-7.58-2.91-15.98-6.57-22.94
			c-3.3-6.28-8.94-9.2-15.79-10.11c-8.62-1.15-17.54-0.98-26.17-0.12c-32.99,3.3-60.78,19.71-86.09,40.15
			c-25.61,20.69-49.14,43.81-78.4,59.49c-31.76,17.01-67.06,26.64-102.24,33.59c-75.75,14.96-153.51,15.64-230.43,17.63
			c-79.04,2.04-158.12,3.46-237.18,2.08c-19.18-0.34-38.36-0.84-57.53-1.54C76.92,751.95,76.92,756.95,80.13,757.06L80.13,757.06z"
			/>
	</g>
</g>
<g>
	<g>
		<path d="M766.42,664.94c-4.46,27.3,4.69,53.67,7.93,80.53c2.33,19.36,0.83,41.63-11.23,57.79c-5.9,7.91-14.45,13.55-24.11,15.63
			c-9.77,2.1-20.01,0.45-29.22-3.19c-9.64-3.81-18.37-10.05-25.32-17.72c-3.35-3.7-5.88-8.9-10.26-11.49
			c-3.86-2.28-8.44-1.67-11.68,1.33c-6.74,6.25-6.75,17.02-10.96,24.73c-5.13,9.39-13.9,16.37-23.6,20.64
			c-11.28,4.97-23.87,5.84-36.01,4.63c-6.91-0.69-13.73-2.12-20.44-3.89c-3.06-0.81-6.09-1.71-9.12-2.64
			c-3.29-1.01-6.75-1.99-10.19-1.13c-9.11,2.29-9.73,13.33-11.17,20.87c-1.74,9.09-7.17,15.56-15.68,19.22
			c-8.32,3.58-18.01,4.3-26.91,2.97c-12.11-1.82-23.52-7.11-35.14-10.75c-11.11-3.48-22.54-5.47-34.12-3.47
			c-9.47,1.63-18.39,5.67-26.68,10.42c-17.13,9.82-32.45,23.47-51.25,30.18c-4.51,1.61-9.18,2.78-13.95,3.3
			c0.8,0.61,1.61,1.22,2.41,1.84c-5.62-13.79-11.24-27.58-16.87-41.37c-0.75-1.85-3.44-2.66-4.57-0.6
			c-6.92,12.7-17.09,23.42-29.41,31c-6.25,3.85-12.98,6.88-20.04,8.91c-7.18,2.07-16.22,3.51-21.22-3.47
			c-2.25-3.13-3.45-6.91-4.62-10.54c-1.16-3.6-2.19-7.24-3.07-10.91c-1.82-7.56-3.04-15.25-3.64-23
			c-1.22-15.59-0.1-31.34,3.37-46.59c3.89-17.13,10.68-33.46,20.17-48.24c1.74-2.72-2.58-5.23-4.32-2.52
			c-18.18,28.3-26.67,62.53-24.32,96.05c0.58,8.34,1.81,16.65,3.72,24.78c1.79,7.66,3.72,16.54,8.16,23.16
			c9.62,14.35,30.14,6.27,42.35,0.05c15.66-7.98,28.79-20.73,37.2-36.16c-1.52-0.2-3.05-0.4-4.57-0.6
			c5.62,13.79,11.24,27.58,16.87,41.37c0.38,0.94,1.25,1.96,2.41,1.84c20.21-2.18,36.93-14.17,53.37-25.12
			c17.28-11.52,35.83-22.45,57.42-18.92c12.61,2.06,24.37,7.33,36.51,11.09c9.84,3.05,19.75,4.69,30.03,3.28
			c8.74-1.2,17.69-4.45,23.9-10.95c2.99-3.13,5.21-6.92,6.43-11.08c1.3-4.43,1.57-9.08,2.74-13.54c1.28-4.85,3.81-8.68,9.44-7.63
			c3.27,0.61,6.46,1.88,9.66,2.79c3.37,0.96,6.77,1.83,10.2,2.58c13.04,2.86,26.58,4.02,39.78,1.47
			c10.4-2.01,20.32-6.72,28.34-13.65c3.91-3.38,7.34-7.39,10-11.83c2.67-4.47,4.04-9.25,5.54-14.18c1.14-3.73,2.52-8.75,5.8-11.23
			c4.68-3.52,8.68,3.37,11.07,6.45c6.36,8.19,14.58,15.01,23.77,19.82c17.8,9.32,40.03,10.97,56.64-1.76
			c16.09-12.33,21.72-33.42,22.22-52.85c0.67-25.77-8.6-50.47-9.91-76.08c-0.35-6.79-0.13-13.6,0.97-20.32
			C771.75,663.12,766.93,661.77,766.42,664.94L766.42,664.94z"/>
	</g>
</g>
<g>
	<g>
		<path d="M431.69,981.7c0.07-4.53,0.14-9.07,0.2-13.6c-0.83,0.83-1.67,1.67-2.5,2.5c24.76-0.03,49.77-0.12,74.11-5.24
			c12.07-2.54,23.59-6.6,34.87-11.57c11.1-4.89,21.94-10.41,33.29-14.72c21.46-8.15,44.38-9.65,66.6-14.71
			c10.91-2.48,21.7-5.98,31.47-11.52c9.38-5.33,17.58-12.47,26.98-17.78c4.41-2.49,9.14-4.6,14.14-5.57
			c3.96-0.77,8.13-0.34,11.98,0.79c6.91,2.02,14.62,7.12,15.78,14.81c0.26,1.73,0.09,3.46-0.35,5.14c-0.82,3.12,4.01,4.44,4.82,1.33
			c2.27-8.69-2.3-16.6-9.3-21.54c-7.23-5.1-16.88-7.15-25.5-5.07c-10.69,2.58-19.75,9.15-28.58,15.39
			c-4.49,3.17-9.02,6.32-13.86,8.95c-4.95,2.69-10.15,4.84-15.5,6.59c-22.06,7.24-45.57,8.11-67.88,14.36
			c-23.8,6.67-44.79,20.51-68.51,27.38c-24.4,7.06-50.01,7.84-75.24,7.97c-3.1,0.02-6.2,0.02-9.3,0.02c-1.37,0-2.48,1.14-2.5,2.5
			c-0.07,4.53-0.14,9.07-0.2,13.6C426.65,984.92,431.65,984.92,431.69,981.7L431.69,981.7z"/>
	</g>
</g>
<g>
	<g>
		<path d="M305.09,679.54c29.66,0.07,59.33,0.14,88.99,0.2c29.8,0.07,59.61,0.14,89.41,0.2c29.43,0.07,58.87,0.28,88.3,0.18
			c27.67-0.1,55.89-1.32,82.21-10.67c25.06-8.9,47.3-23.82,68.79-39.18c2.66-1.9,5.32-3.82,7.97-5.73c0.94-0.68,1.42-1.66,1.15-2.82
			c-4.83-20.56-6.65-41.69-5.45-62.77c0.18-3.21-4.82-3.2-5,0c-1.22,21.51,0.7,43.13,5.63,64.1c0.38-0.94,0.77-1.88,1.15-2.82
			c-21.26,15.33-42.83,30.92-67.12,41.14c-25.69,10.8-53.31,13.31-80.91,13.69c-28.98,0.4-57.99-0.02-86.97-0.09
			c-29.52-0.07-59.04-0.13-88.57-0.2c-29.52-0.07-59.04-0.13-88.57-0.2c-3.67-0.01-7.35-0.02-11.02-0.03
			C301.87,674.54,301.87,679.54,305.09,679.54L305.09,679.54z"/>
	</g>
</g>
<g>
	<g>
		<path d="M305.54,678.73c-2.54-11.35-5.08-22.7-7.62-34.04c-2.16-9.64-5.89-21.14-1.42-30.68c1.9-4.04,5.01-7.54,9.43-8.76
			c3.1-0.85,1.78-5.68-1.33-4.82c-9.95,2.74-14.83,13.21-15.08,22.82c-0.15,6.05,1.17,12.04,2.49,17.9
			c1.38,6.16,2.76,12.32,4.14,18.48c1.52,6.81,3.05,13.62,4.57,20.43C301.42,683.2,306.24,681.87,305.54,678.73L305.54,678.73z"/>
	</g>
</g>
<g>
	<g>
		<path d="M155.76,225.83c40.97,0.57,81.95,0.71,122.92,0.39c40.76-0.31,81.52-1.07,122.27-2.26c22.99-0.67,45.97-1.49,68.94-2.44
			c3.21-0.13,3.22-5.13,0-5c-40.94,1.7-81.89,2.96-122.86,3.77c-40.76,0.81-81.52,1.17-122.29,1.09c-23-0.04-45.99-0.23-68.98-0.55
			C152.54,220.78,152.54,225.78,155.76,225.83L155.76,225.83z"/>
	</g>
</g>
<g>
	<g>
		<path d="M456.39,110.56c36.89-1.77,73.83-2.59,110.76-2.46c36.75,0.13,73.49,1.2,110.18,3.21c20.78,1.14,41.54,2.58,62.28,4.32
			c3.21,0.27,3.19-4.73,0-5c-36.81-3.09-73.69-5.23-110.61-6.42c-36.73-1.19-73.49-1.43-110.23-0.74
			c-20.81,0.39-41.61,1.09-62.4,2.09C453.18,105.71,453.17,110.71,456.39,110.56L456.39,110.56z"/>
	</g>
</g>
</svg>
